<?xml version="1.0" encoding="UTF-8"?>
<svg width="700pt" height="700pt" version="1.1" viewBox="0 0 700 700" xmlns="http://www.w3.org/2000/svg">
 <path d="m386.99 474.2c-3.0625-0.55469-5.0859-3.5039-4.5312-6.5664 0.55078-3.0625 3.5-5.0938 6.5664-4.5391 14.445 2.6914 26.684 6.8594 35.473 12.098 9.5039 5.7734 14.863 12.773 14.863 20.645 0 11.051-10.809 20.531-28.258 26.879-15.75 5.7344-37.371 9.293-61.117 9.293-23.746 0-45.367-3.5586-61.117-9.293-17.449-6.3516-28.258-15.828-28.258-26.879 0-7.9844 5.5078-15.066 15.062-20.754 8.5938-5.125 20.828-9.293 35.273-11.984 3.0703-0.55469 6.0195 1.4766 6.5664 4.5391 0.55469 3.0625-1.4688 6.0117-4.5312 6.5664-13.117 2.4414-24.062 6.125-31.555 10.59-6.0117 3.5664-9.4844 7.375-9.4844 11.047 0 5.7891 7.9492 11.594 20.781 16.266 14.543 5.293 34.785 8.5781 57.258 8.5781 22.477 0 42.715-3.2891 57.258-8.5781 12.832-4.668 20.781-10.477 20.781-16.266 0-3.5977-3.3477-7.3398-9.3125-10.953-7.6641-4.5586-18.613-8.2422-31.727-10.684zm90.305-150.11c-27.137 46.953-67.703 101.75-123.32 163.75-2.5391 2.2969-6.1133 2.0898-8.1836-0.22656-55.402-61.785-95.965-116.57-123.11-163.53-29.375-50.832-43.191-92.852-43.23-125.25-0.019531-47.344 19.07-89.965 49.926-120.84 30.914-30.91 73.551-49.996 120.61-49.996 47.055 0 89.684 19.082 120.56 49.945 30.902 30.914 49.992 73.543 49.992 120.61 0.11328 32.199-13.699 74.41-43.242 125.54zm-181.4-179.64c-13.824 13.844-22.383 32.973-22.383 54.098s8.5586 40.262 22.383 54.098c13.836 13.824 32.965 22.391 54.098 22.391 21.125 0 40.262-8.5664 54.098-22.391 13.824-13.836 22.383-32.973 22.383-54.098s-8.5586-40.254-22.383-54.098c-13.836-13.824-32.973-22.383-54.098-22.383-21.133 0-40.262 8.5586-54.098 22.383z"/>
</svg>
